<svg xmlns="http://www.w3.org/2000/svg" width="80" height="81" viewBox="0 0 80 81" fill="none"><path d="M0.000244141 30.9199C0.000244141 14.3514 13.4317 0.919922 30.0002 0.919922H80.0002V55.9199C80.0002 69.727 68.8074 80.9199 55.0002 80.9199H25.0002C11.1931 80.9199 0.000244141 69.727 0.000244141 55.9199V30.9199Z" fill="#D7E9FF"></path><g clip-path="url(#clip0_14_10012)"><path d="M46.6711 39.7334C46.6008 39.5752 46.4954 39.4521 46.3547 39.3643C46.2141 39.2764 46.0647 39.2324 45.9065 39.2324H42.5315V28.2637C42.5315 28.0352 42.448 27.8374 42.281 27.6704C42.114 27.5034 41.9163 27.4199 41.6877 27.4199H38.3127C38.0842 27.4199 37.8865 27.5034 37.7195 27.6704C37.5525 27.8374 37.469 28.0352 37.469 28.2637V39.2324H34.094C33.9358 39.2324 33.7864 39.2764 33.6458 39.3643C33.5051 39.4521 33.3997 39.5752 33.3293 39.7334C33.259 39.874 33.2371 40.0278 33.2634 40.1948C33.2898 40.3618 33.3557 40.5068 33.4612 40.6299L39.3674 47.3799C39.4377 47.4678 39.53 47.5381 39.6443 47.5908C39.7585 47.6436 39.8772 47.6699 40.0002 47.6699C40.1233 47.6699 40.2419 47.6436 40.3562 47.5908C40.4705 47.5381 40.5627 47.4678 40.6331 47.3799L46.5393 40.6299C46.6448 40.5068 46.7107 40.3618 46.7371 40.1948C46.7634 40.0278 46.7415 39.874 46.6711 39.7334ZM49.2815 45.9824V51.0449H30.719V45.9824H27.344V52.7324C27.344 53.207 27.511 53.6069 27.845 53.9321C28.179 54.2573 28.5745 54.4199 29.0315 54.4199H50.969C51.4436 54.4199 51.8435 54.2573 52.1687 53.9321C52.4939 53.6069 52.6565 53.207 52.6565 52.7324V45.9824H49.2815Z" fill="#4E9BFF"></path></g><defs><clipPath id="clip0_14_10012"><rect width="46" height="27" fill="white" transform="matrix(1 0 0 -1 17.0002 54.4199)"></rect></clipPath></defs></svg>