<svg xmlns="http://www.w3.org/2000/svg" width="80" height="81" viewBox="0 0 80 81" fill="none"><path d="M0 30.9199C0 14.3514 13.4315 0.919922 30 0.919922H80V55.9199C80 69.727 68.8071 80.9199 55 80.9199H25C11.1929 80.9199 0 69.727 0 55.9199V30.9199Z" fill="#D7E9FF"></path><path d="M39.4654 31.0566C39.6451 30.877 39.9146 30.7871 40.1842 30.7871C40.3639 30.7871 40.6334 30.877 40.8131 31.0566L57.4342 44.623V59.3574C57.4342 60.166 56.7154 60.7949 55.9967 60.7949H45.8443C45.1256 60.7949 44.4068 60.166 44.4068 59.3574V50.7324C44.4068 50.0137 43.7779 49.2949 42.9693 49.2949H37.2193C36.5006 49.2949 35.7818 50.0137 35.7818 50.7324V59.3574C35.7818 60.166 35.1529 60.7949 34.4342 60.7949H24.3717C23.5631 60.7949 22.9342 60.166 22.9342 59.3574V44.7129L39.4654 31.0566ZM65.61 40.3105C65.8795 40.4902 66.0592 40.8496 66.0592 41.1191C66.0592 41.3887 65.9693 41.6582 65.7896 41.8379L63.4537 44.623C63.274 44.8926 63.0045 44.9824 62.6451 44.9824C62.3756 44.9824 62.1061 44.8926 61.9264 44.7129L40.8131 27.373C40.6334 27.1934 40.3639 27.1035 40.1842 27.1035C39.9146 27.1035 39.6451 27.1934 39.4654 27.373L18.3521 44.7129C18.1725 44.8926 17.9029 44.9824 17.6334 44.9824C17.274 44.9824 17.0045 44.8926 16.8248 44.623L14.4889 41.8379C14.399 41.6582 14.2193 41.3887 14.2193 41.1191C14.2193 40.8496 14.399 40.4902 14.6686 40.3105L37.399 21.5332C38.1178 20.9941 39.1061 20.6348 40.1842 20.6348C41.1725 20.6348 42.1607 20.9941 42.8795 21.5332L50.9654 28.1816V21.7129C50.9654 21.084 51.4146 20.6348 52.0436 20.6348H57.0748C57.6139 20.6348 58.1529 21.084 58.1529 21.7129V34.1113L65.61 40.3105Z" fill="#4E9BFF"></path></svg>