<svg xmlns="http://www.w3.org/2000/svg" width="80" height="81" viewBox="0 0 80 81" fill="none"><path d="M0.000244141 30.9199C0.000244141 14.3514 13.4317 0.919922 30.0002 0.919922H80.0002V55.9199C80.0002 69.727 68.8074 80.9199 55.0002 80.9199H25.0002C11.1931 80.9199 0.000244141 69.727 0.000244141 55.9199V30.9199Z" fill="#D7E9FF"></path><path d="M50.9163 38.3359C51.637 38.3359 52.2478 38.0854 52.7488 37.5845C53.2498 37.0835 53.5002 36.4727 53.5002 35.752C53.5002 35.0488 53.2498 34.4424 52.7488 33.9326C52.2478 33.4229 51.637 33.168 50.9163 33.168C50.3362 33.168 49.822 33.3394 49.3738 33.6821C48.9255 34.0249 48.6223 34.4512 48.4641 34.9609H42.637V33.168H37.3635V34.9609H31.5364C31.3782 34.4512 31.075 34.0249 30.6267 33.6821C30.1785 33.3394 29.6643 33.168 29.0842 33.168C28.3635 33.168 27.7527 33.4229 27.2517 33.9326C26.7507 34.4424 26.5002 35.0488 26.5002 35.752C26.5002 36.4727 26.7507 37.0835 27.2517 37.5845C27.7527 38.0854 28.3635 38.3359 29.0842 38.3359C29.6643 38.3359 30.1785 38.1689 30.6267 37.835C31.075 37.501 31.3782 37.0703 31.5364 36.543H34.3577C33.6194 37.0527 33.0217 37.6196 32.5647 38.2437C32.1077 38.8677 31.7473 39.4697 31.4836 40.0498C31.1848 40.7178 30.9739 41.3462 30.8508 41.9351C30.7278 42.5239 30.6487 43.0117 30.6135 43.3984H28.6096V48.6719H33.8567V43.4248H32.1956C32.2307 43.0908 32.3054 42.6821 32.4197 42.1987C32.5339 41.7153 32.7053 41.2188 32.9338 40.709C33.3733 39.7246 33.9622 38.9116 34.7004 38.27C35.4387 37.6284 36.3264 37.167 37.3635 36.8857V38.415H42.637V36.8594C43.6917 37.123 44.5925 37.5713 45.3396 38.2041C46.0867 38.8369 46.6711 39.6543 47.093 40.6562C47.3391 41.1836 47.5105 41.689 47.6072 42.1724C47.7039 42.6558 47.7698 43.0645 47.8049 43.3984H46.012V48.6719H51.259V43.4248H49.4133C49.3782 43.0205 49.2991 42.5239 49.176 41.9351C49.053 41.3462 48.8508 40.7266 48.5696 40.0762C48.3235 39.4785 47.9763 38.8677 47.5281 38.2437C47.0798 37.6196 46.4866 37.0527 45.7483 36.543H48.4641C48.6223 37.0703 48.9255 37.501 49.3738 37.835C49.822 38.1689 50.3362 38.3359 50.9163 38.3359ZM50.9163 34.75C51.1975 34.75 51.4348 34.8467 51.6282 35.04C51.8215 35.2334 51.9182 35.4707 51.9182 35.752C51.9182 36.0332 51.8215 36.2705 51.6282 36.4639C51.4348 36.6572 51.1975 36.7539 50.9163 36.7539C50.635 36.7539 50.3977 36.6572 50.2043 36.4639C50.011 36.2705 49.9143 36.0332 49.9143 35.752C49.9143 35.4707 50.011 35.2334 50.2043 35.04C50.3977 34.8467 50.635 34.75 50.9163 34.75ZM29.0842 36.7539C28.803 36.7539 28.5657 36.6572 28.3723 36.4639C28.179 36.2705 28.0823 36.0332 28.0823 35.752C28.0823 35.4707 28.179 35.2334 28.3723 35.04C28.5657 34.8467 28.803 34.75 29.0842 34.75C29.3655 34.75 29.6028 34.8467 29.7961 35.04C29.9895 35.2334 30.0862 35.4707 30.0862 35.752C30.0862 36.0332 29.9895 36.2705 29.7961 36.4639C29.6028 36.6572 29.3655 36.7539 29.0842 36.7539ZM32.2747 47.0898H30.1917V45.0068H32.2747V47.0898ZM49.677 47.0898H47.594V45.0068H49.677V47.0898ZM41.0549 36.8594H38.9456V34.75H41.0549V36.8594Z" fill="#4E9BFF"></path></svg>