<svg xmlns="http://www.w3.org/2000/svg" width="36" height="36" viewBox="0 0 36 36" fill="none"><rect x="0.000244141" width="36" height="36" rx="18" fill="#2C63C2"></rect><path d="M26.1769 13.8776C25.9806 13.1385 25.4023 12.5565 24.668 12.3589C23.337 12 18.0001 12 18.0001 12C18.0001 12 12.6633 12 11.3323 12.3589C10.598 12.5565 10.0197 13.1385 9.82342 13.8776C9.4668 15.2172 9.4668 18.0121 9.4668 18.0121C9.4668 18.0121 9.4668 20.8071 9.82342 22.1467C10.0197 22.8857 10.598 23.4435 11.3323 23.6411C12.6633 24 18.0001 24 18.0001 24C18.0001 24 23.337 24 24.668 23.6411C25.4023 23.4435 25.9806 22.8857 26.1769 22.1467C26.5335 20.8071 26.5335 18.0121 26.5335 18.0121C26.5335 18.0121 26.5335 15.2172 26.1769 13.8776ZM16.2547 20.5497V15.4745L20.7153 18.0122L16.2547 20.5497Z" fill="white"></path></svg>