<svg xmlns="http://www.w3.org/2000/svg" width="36" height="36" viewBox="0 0 36 36" fill="none"><rect x="0.000244141" width="36" height="36" rx="18" fill="#2C63C2"></rect><path d="M13.6507 24.7501H10.3854V14.2349H13.6507V24.7501ZM12.0163 12.8005C10.9722 12.8005 10.1252 11.9357 10.1252 10.8915C10.1252 10.39 10.3245 9.90901 10.6791 9.55437C11.0338 9.19972 11.5148 9.00049 12.0163 9.00049C12.5178 9.00049 12.9988 9.19972 13.3535 9.55437C13.7081 9.90901 13.9074 10.39 13.9074 10.8915C13.9074 11.9357 13.0601 12.8005 12.0163 12.8005ZM25.8717 24.7501H22.6134V19.6314C22.6134 18.4115 22.5888 16.847 20.9158 16.847C19.2181 16.847 18.9579 18.1724 18.9579 19.5435V24.7501H15.6961V14.2349H18.8278V15.6693H18.8735C19.3095 14.8431 20.3743 13.9712 21.9631 13.9712C25.2677 13.9712 25.8752 16.1474 25.8752 18.974V24.7501H25.8717Z" fill="white"></path></svg>