<svg xmlns="http://www.w3.org/2000/svg" width="1014" height="105" viewBox="0 0 1014 105" fill="none"><path d="M35.5732 103.896C29.0026 103.896 23.1146 102.829 17.9092 100.696C12.7039 98.5627 8.52258 95.4053 5.36524 91.224C2.29324 87.0427 0.671911 82.008 0.501245 76.12H23.7972C24.1386 79.448 25.2906 82.008 27.2532 83.8C29.2159 85.5067 31.7759 86.36 34.9332 86.36C38.1759 86.36 40.7359 85.6347 42.6132 84.184C44.4906 82.648 45.4292 80.5573 45.4292 77.912C45.4292 75.6933 44.6612 73.8587 43.1252 72.408C41.6746 70.9573 39.8399 69.7627 37.6212 68.824C35.4879 67.8853 32.4159 66.8187 28.4052 65.624C22.6026 63.832 17.8666 62.04 14.1972 60.248C10.5279 58.456 7.37058 55.8107 4.72524 52.312C2.07991 48.8133 0.757245 44.248 0.757245 38.616C0.757245 30.2533 3.78658 23.7253 9.84524 19.032C15.9039 14.2533 23.7972 11.864 33.5252 11.864C43.4239 11.864 51.4026 14.2533 57.4612 19.032C63.5199 23.7253 66.7626 30.296 67.1892 38.744H43.5092C43.3386 35.8427 42.2719 33.5813 40.3092 31.96C38.3466 30.2533 35.8292 29.4 32.7572 29.4C30.1119 29.4 27.9786 30.1253 26.3572 31.576C24.7359 32.9413 23.9252 34.9467 23.9252 37.592C23.9252 40.4933 25.2906 42.7547 28.0212 44.376C30.7519 45.9973 35.0186 47.7467 40.8212 49.624C46.6239 51.5867 51.3172 53.464 54.9012 55.256C58.5706 57.048 61.7279 59.6507 64.3732 63.064C67.0186 66.4773 68.3412 70.872 68.3412 76.248C68.3412 81.368 67.0186 86.0187 64.3732 90.2C61.8132 94.3813 58.0586 97.7093 53.1092 100.184C48.1599 102.659 42.3146 103.896 35.5732 103.896ZM152.339 31.576V103H130.451V93.272C128.233 96.4293 125.203 98.9893 121.363 100.952C117.609 102.829 113.427 103.768 108.819 103.768C103.358 103.768 98.5366 102.573 94.3552 100.184C90.1739 97.7093 86.9312 94.168 84.6272 89.56C82.3232 84.952 81.1712 79.5333 81.1712 73.304V31.576H102.931V70.36C102.931 75.1387 104.169 78.8507 106.643 81.496C109.118 84.1413 112.446 85.464 116.627 85.464C120.894 85.464 124.265 84.1413 126.739 81.496C129.214 78.8507 130.451 75.1387 130.451 70.36V31.576H152.339ZM163.709 67.288C163.709 59.864 165.203 53.3787 168.189 47.832C171.261 42.2853 175.485 38.0187 180.861 35.032C186.323 32.0453 192.552 30.552 199.549 30.552C208.509 30.552 215.976 32.8987 221.949 37.592C228.008 42.2853 231.976 48.8987 233.853 57.432H210.557C208.595 51.9707 204.797 49.24 199.165 49.24C195.155 49.24 191.955 50.8187 189.565 53.976C187.176 57.048 185.981 61.4853 185.981 67.288C185.981 73.0907 187.176 77.5707 189.565 80.728C191.955 83.8 195.155 85.336 199.165 85.336C204.797 85.336 208.595 82.6053 210.557 77.144H233.853C231.976 85.5067 228.008 92.0773 221.949 96.856C215.891 101.635 208.424 104.024 199.549 104.024C192.552 104.024 186.323 102.531 180.861 99.544C175.485 96.5573 171.261 92.2907 168.189 86.744C165.203 81.1973 163.709 74.712 163.709 67.288ZM241.209 67.288C241.209 59.864 242.703 53.3787 245.689 47.832C248.761 42.2853 252.985 38.0187 258.361 35.032C263.823 32.0453 270.052 30.552 277.049 30.552C286.009 30.552 293.476 32.8987 299.449 37.592C305.508 42.2853 309.476 48.8987 311.353 57.432H288.057C286.095 51.9707 282.297 49.24 276.665 49.24C272.655 49.24 269.455 50.8187 267.065 53.976C264.676 57.048 263.481 61.4853 263.481 67.288C263.481 73.0907 264.676 77.5707 267.065 80.728C269.455 83.8 272.655 85.336 276.665 85.336C282.297 85.336 286.095 82.6053 288.057 77.144H311.353C309.476 85.5067 305.508 92.0773 299.449 96.856C293.391 101.635 285.924 104.024 277.049 104.024C270.052 104.024 263.823 102.531 258.361 99.544C252.985 96.5573 248.761 92.2907 245.689 86.744C242.703 81.1973 241.209 74.712 241.209 67.288ZM390.389 66.136C390.389 68.184 390.261 70.3173 390.005 72.536H340.469C340.811 76.9733 342.219 80.3867 344.693 82.776C347.253 85.08 350.368 86.232 354.037 86.232C359.499 86.232 363.296 83.928 365.429 79.32H388.725C387.531 84.0133 385.355 88.2373 382.197 91.992C379.125 95.7467 375.243 98.6907 370.549 100.824C365.856 102.957 360.608 104.024 354.805 104.024C347.808 104.024 341.579 102.531 336.117 99.544C330.656 96.5573 326.389 92.2907 323.317 86.744C320.245 81.1973 318.709 74.712 318.709 67.288C318.709 59.864 320.203 53.3787 323.189 47.832C326.261 42.2853 330.528 38.0187 335.989 35.032C341.451 32.0453 347.723 30.552 354.805 30.552C361.717 30.552 367.861 32.0027 373.237 34.904C378.613 37.8053 382.795 41.944 385.781 47.32C388.853 52.696 390.389 58.968 390.389 66.136ZM367.989 60.376C367.989 56.6213 366.709 53.6347 364.149 51.416C361.589 49.1973 358.389 48.088 354.549 48.088C350.88 48.088 347.765 49.1547 345.205 51.288C342.731 53.4213 341.195 56.4507 340.597 60.376H367.989ZM430.992 104.024C424.763 104.024 419.216 102.957 414.352 100.824C409.488 98.6907 405.648 95.7893 402.832 92.12C400.016 88.3653 398.438 84.184 398.096 79.576H419.728C419.984 82.0507 421.136 84.056 423.184 85.592C425.232 87.128 427.75 87.896 430.736 87.896C433.467 87.896 435.558 87.384 437.008 86.36C438.544 85.2507 439.312 83.8427 439.312 82.136C439.312 80.088 438.246 78.5947 436.112 77.656C433.979 76.632 430.523 75.5227 425.744 74.328C420.624 73.1333 416.358 71.896 412.944 70.616C409.531 69.2507 406.587 67.16 404.112 64.344C401.638 61.4427 400.4 57.56 400.4 52.696C400.4 48.6 401.51 44.888 403.728 41.56C406.032 38.1467 409.36 35.4587 413.712 33.496C418.15 31.5333 423.398 30.552 429.456 30.552C438.416 30.552 445.456 32.7707 450.576 37.208C455.782 41.6453 458.768 47.5333 459.536 54.872H439.312C438.971 52.3973 437.862 50.4347 435.984 48.984C434.192 47.5333 431.803 46.808 428.816 46.808C426.256 46.808 424.294 47.32 422.928 48.344C421.563 49.2827 420.88 50.6053 420.88 52.312C420.88 54.36 421.947 55.896 424.08 56.92C426.299 57.944 429.712 58.968 434.32 59.992C439.611 61.3573 443.92 62.7227 447.248 64.088C450.576 65.368 453.478 67.5013 455.952 70.488C458.512 73.3893 459.835 77.3147 459.92 82.264C459.92 86.4453 458.726 90.2 456.336 93.528C454.032 96.7707 450.662 99.3307 446.224 101.208C441.872 103.085 436.795 104.024 430.992 104.024ZM502.367 104.024C496.138 104.024 490.591 102.957 485.727 100.824C480.863 98.6907 477.023 95.7893 474.207 92.12C471.391 88.3653 469.813 84.184 469.471 79.576H491.103C491.359 82.0507 492.511 84.056 494.559 85.592C496.607 87.128 499.125 87.896 502.111 87.896C504.842 87.896 506.933 87.384 508.383 86.36C509.919 85.2507 510.687 83.8427 510.687 82.136C510.687 80.088 509.621 78.5947 507.487 77.656C505.354 76.632 501.898 75.5227 497.119 74.328C491.999 73.1333 487.733 71.896 484.319 70.616C480.906 69.2507 477.962 67.16 475.487 64.344C473.013 61.4427 471.775 57.56 471.775 52.696C471.775 48.6 472.885 44.888 475.103 41.56C477.407 38.1467 480.735 35.4587 485.087 33.496C489.525 31.5333 494.773 30.552 500.831 30.552C509.791 30.552 516.831 32.7707 521.951 37.208C527.157 41.6453 530.143 47.5333 530.911 54.872H510.687C510.346 52.3973 509.237 50.4347 507.359 48.984C505.567 47.5333 503.178 46.808 500.191 46.808C497.631 46.808 495.669 47.32 494.303 48.344C492.938 49.2827 492.255 50.6053 492.255 52.312C492.255 54.36 493.322 55.896 495.455 56.92C497.674 57.944 501.087 58.968 505.695 59.992C510.986 61.3573 515.295 62.7227 518.623 64.088C521.951 65.368 524.853 67.5013 527.327 70.488C529.887 73.3893 531.21 77.3147 531.295 82.264C531.295 86.4453 530.101 90.2 527.711 93.528C525.407 96.7707 522.037 99.3307 517.599 101.208C513.247 103.085 508.17 104.024 502.367 104.024ZM604.323 103.896C597.753 103.896 591.865 102.829 586.659 100.696C581.454 98.5627 577.273 95.4053 574.115 91.224C571.043 87.0427 569.422 82.008 569.251 76.12H592.547C592.889 79.448 594.041 82.008 596.003 83.8C597.966 85.5067 600.526 86.36 603.683 86.36C606.926 86.36 609.486 85.6347 611.363 84.184C613.241 82.648 614.179 80.5573 614.179 77.912C614.179 75.6933 613.411 73.8587 611.875 72.408C610.425 70.9573 608.59 69.7627 606.371 68.824C604.238 67.8853 601.166 66.8187 597.155 65.624C591.353 63.832 586.617 62.04 582.947 60.248C579.278 58.456 576.121 55.8107 573.475 52.312C570.83 48.8133 569.507 44.248 569.507 38.616C569.507 30.2533 572.537 23.7253 578.595 19.032C584.654 14.2533 592.547 11.864 602.275 11.864C612.174 11.864 620.153 14.2533 626.211 19.032C632.27 23.7253 635.513 30.296 635.939 38.744H612.259C612.089 35.8427 611.022 33.5813 609.059 31.96C607.097 30.2533 604.579 29.4 601.507 29.4C598.862 29.4 596.729 30.1253 595.107 31.576C593.486 32.9413 592.675 34.9467 592.675 37.592C592.675 40.4933 594.041 42.7547 596.771 44.376C599.502 45.9973 603.769 47.7467 609.571 49.624C615.374 51.5867 620.067 53.464 623.651 55.256C627.321 57.048 630.478 59.6507 633.123 63.064C635.769 66.4773 637.091 70.872 637.091 76.248C637.091 81.368 635.769 86.0187 633.123 90.2C630.563 94.3813 626.809 97.7093 621.859 100.184C616.91 102.659 611.065 103.896 604.323 103.896ZM690.369 84.44V103H679.233C671.297 103 665.111 101.08 660.673 97.24C656.236 93.3147 654.017 86.9573 654.017 78.168V49.752H645.313V31.576H654.017V14.168H675.905V31.576H690.241V49.752H675.905V78.424C675.905 80.5573 676.417 82.0933 677.441 83.032C678.465 83.9707 680.172 84.44 682.561 84.44H690.369ZM735.073 104.024C728.076 104.024 721.761 102.531 716.129 99.544C710.583 96.5573 706.188 92.2907 702.945 86.744C699.788 81.1973 698.209 74.712 698.209 67.288C698.209 59.9493 699.831 53.5067 703.073 47.96C706.316 42.328 710.753 38.0187 716.385 35.032C722.017 32.0453 728.332 30.552 735.329 30.552C742.327 30.552 748.641 32.0453 754.273 35.032C759.905 38.0187 764.343 42.328 767.585 47.96C770.828 53.5067 772.449 59.9493 772.449 67.288C772.449 74.6267 770.785 81.112 767.457 86.744C764.215 92.2907 759.735 96.5573 754.017 99.544C748.385 102.531 742.071 104.024 735.073 104.024ZM735.073 85.08C739.255 85.08 742.796 83.544 745.697 80.472C748.684 77.4 750.177 73.0053 750.177 67.288C750.177 61.5707 748.727 57.176 745.825 54.104C743.009 51.032 739.511 49.496 735.329 49.496C731.063 49.496 727.521 51.032 724.705 54.104C721.889 57.0907 720.481 61.4853 720.481 67.288C720.481 73.0053 721.847 77.4 724.577 80.472C727.393 83.544 730.892 85.08 735.073 85.08ZM805.949 43.48C808.509 39.5547 811.709 36.4827 815.549 34.264C819.389 31.96 823.656 30.808 828.349 30.808V53.976H822.333C816.872 53.976 812.776 55.1707 810.045 57.56C807.315 59.864 805.949 63.96 805.949 69.848V103H784.061V31.576H805.949V43.48ZM849.819 24.152C845.979 24.152 842.822 23.0427 840.347 20.824C837.958 18.52 836.763 15.704 836.763 12.376C836.763 8.96266 837.958 6.14666 840.347 3.92799C842.822 1.62399 845.979 0.471992 849.819 0.471992C853.574 0.471992 856.646 1.62399 859.035 3.92799C861.51 6.14666 862.747 8.96266 862.747 12.376C862.747 15.704 861.51 18.52 859.035 20.824C856.646 23.0427 853.574 24.152 849.819 24.152ZM860.699 31.576V103H838.811V31.576H860.699ZM943.889 66.136C943.889 68.184 943.761 70.3173 943.505 72.536H893.969C894.311 76.9733 895.719 80.3867 898.193 82.776C900.753 85.08 903.868 86.232 907.537 86.232C912.999 86.232 916.796 83.928 918.929 79.32H942.225C941.031 84.0133 938.855 88.2373 935.697 91.992C932.625 95.7467 928.743 98.6907 924.049 100.824C919.356 102.957 914.108 104.024 908.305 104.024C901.308 104.024 895.079 102.531 889.617 99.544C884.156 96.5573 879.889 92.2907 876.817 86.744C873.745 81.1973 872.209 74.712 872.209 67.288C872.209 59.864 873.703 53.3787 876.689 47.832C879.761 42.2853 884.028 38.0187 889.489 35.032C894.951 32.0453 901.223 30.552 908.305 30.552C915.217 30.552 921.361 32.0027 926.737 34.904C932.113 37.8053 936.295 41.944 939.281 47.32C942.353 52.696 943.889 58.968 943.889 66.136ZM921.489 60.376C921.489 56.6213 920.209 53.6347 917.649 51.416C915.089 49.1973 911.889 48.088 908.049 48.088C904.38 48.088 901.265 49.1547 898.705 51.288C896.231 53.4213 894.695 56.4507 894.097 60.376H921.489ZM984.492 104.024C978.263 104.024 972.716 102.957 967.852 100.824C962.988 98.6907 959.148 95.7893 956.332 92.12C953.516 88.3653 951.938 84.184 951.596 79.576H973.228C973.484 82.0507 974.636 84.056 976.684 85.592C978.732 87.128 981.25 87.896 984.236 87.896C986.967 87.896 989.058 87.384 990.508 86.36C992.044 85.2507 992.812 83.8427 992.812 82.136C992.812 80.088 991.746 78.5947 989.612 77.656C987.479 76.632 984.023 75.5227 979.244 74.328C974.124 73.1333 969.858 71.896 966.444 70.616C963.031 69.2507 960.087 67.16 957.612 64.344C955.138 61.4427 953.9 57.56 953.9 52.696C953.9 48.6 955.01 44.888 957.228 41.56C959.532 38.1467 962.86 35.4587 967.212 33.496C971.65 31.5333 976.898 30.552 982.956 30.552C991.916 30.552 998.956 32.7707 1004.08 37.208C1009.28 41.6453 1012.27 47.5333 1013.04 54.872H992.812C992.471 52.3973 991.362 50.4347 989.484 48.984C987.692 47.5333 985.303 46.808 982.316 46.808C979.756 46.808 977.794 47.32 976.428 48.344C975.063 49.2827 974.38 50.6053 974.38 52.312C974.38 54.36 975.447 55.896 977.58 56.92C979.799 57.944 983.212 58.968 987.82 59.992C993.111 61.3573 997.42 62.7227 1000.75 64.088C1004.08 65.368 1006.98 67.5013 1009.45 70.488C1012.01 73.3893 1013.33 77.3147 1013.42 82.264C1013.42 86.4453 1012.23 90.2 1009.84 93.528C1007.53 96.7707 1004.16 99.3307 999.724 101.208C995.372 103.085 990.295 104.024 984.492 104.024Z" fill="#898989" fill-opacity="0.2"></path></svg>