<svg xmlns="http://www.w3.org/2000/svg" width="32" height="32" viewBox="0 0 32 32" fill="none"><rect x="0.5" y="0.5" width="31" height="31" rx="15.5" stroke="#576072" stroke-dasharray="2 2"></rect><path d="M16.0007 14.0002C14.8957 14.0002 14.0007 14.8956 14.0007 16.0002C14.0007 17.105 14.8961 18.0002 16.0007 18.0002C17.1055 18.0002 18.0007 17.1048 18.0007 16.0002C18.0007 14.8953 17.1053 14.0002 16.0007 14.0002ZM16.0007 12.6668C17.8409 12.6668 19.334 14.1582 19.334 16.0002C19.334 17.8405 17.8426 19.3335 16.0007 19.3335C14.1603 19.3335 12.6673 17.8421 12.6673 16.0002C12.6673 14.1598 14.1587 12.6668 16.0007 12.6668ZM20.334 12.4996C20.334 12.9597 19.9601 13.3329 19.5007 13.3329C19.0406 13.3329 18.6673 12.9591 18.6673 12.4996C18.6673 12.0401 19.0411 11.6668 19.5007 11.6668C19.9595 11.6662 20.334 12.0401 20.334 12.4996ZM16.0007 10.6668C14.351 10.6668 14.0821 10.6712 13.3148 10.7054C12.7921 10.7299 12.4417 10.8002 12.1161 10.9266C11.8268 11.0388 11.6181 11.1728 11.3957 11.3952C11.1724 11.6184 11.0387 11.8266 10.9269 12.116C10.8002 12.4424 10.73 12.7922 10.7059 13.3143C10.6714 14.0503 10.6673 14.3075 10.6673 16.0002C10.6673 17.6498 10.6717 17.9187 10.7058 18.6859C10.7304 19.2084 10.8008 19.5594 10.9269 19.8842C11.0394 20.1739 11.1737 20.3831 11.395 20.6044C11.6191 20.8282 11.8279 20.9624 12.1146 21.0731C12.4441 21.2005 12.7943 21.2709 13.3147 21.295C14.0508 21.3294 14.308 21.3335 16.0007 21.3335C17.6503 21.3335 17.9192 21.3291 18.6864 21.295C19.2078 21.2705 19.559 21.1999 19.8847 21.0739C20.1736 20.9617 20.3835 20.827 20.6049 20.6058C20.8291 20.3814 20.963 20.1731 21.0738 19.8857C21.2009 19.5574 21.2714 19.2067 21.2955 18.6861C21.3299 17.95 21.334 17.6928 21.334 16.0002C21.334 14.3505 21.3296 14.0816 21.2955 13.3144C21.2709 12.7929 21.2003 12.4412 21.0742 12.1156C20.9623 11.8271 20.8278 11.6177 20.6056 11.3952C20.382 11.1716 20.1744 11.0381 19.8847 10.9264C19.5587 10.7999 19.2083 10.7295 18.6865 10.7054C17.9505 10.6709 17.6933 10.6668 16.0007 10.6668ZM16.0007 9.3335C17.8117 9.3335 18.0379 9.34016 18.749 9.3735C19.4584 9.40628 19.9423 9.5185 20.3673 9.6835C20.8067 9.85294 21.1779 10.0818 21.5484 10.4524C21.9184 10.8229 22.1473 11.1952 22.3173 11.6335C22.4817 12.0579 22.594 12.5424 22.6273 13.2518C22.659 13.9629 22.6673 14.189 22.6673 16.0002C22.6673 17.8113 22.6607 18.0374 22.6273 18.7485C22.5945 19.458 22.4817 19.9418 22.3173 20.3668C22.1479 20.8063 21.9184 21.1774 21.5484 21.548C21.1779 21.918 20.8051 22.1468 20.3673 22.3168C19.9423 22.4813 19.4584 22.5935 18.749 22.6268C18.0379 22.6585 17.8117 22.6668 16.0007 22.6668C14.1895 22.6668 13.9634 22.6602 13.2523 22.6268C12.5429 22.594 12.0595 22.4813 11.634 22.3168C11.1951 22.1474 10.8234 21.918 10.4529 21.548C10.0823 21.1774 9.85398 20.8046 9.68398 20.3668C9.51898 19.9418 9.40732 19.458 9.37398 18.7485C9.34232 18.0374 9.33398 17.8113 9.33398 16.0002C9.33398 14.189 9.34065 13.9629 9.37398 13.2518C9.40676 12.5418 9.51898 12.0585 9.68398 11.6335C9.85342 11.1946 10.0823 10.8229 10.4529 10.4524C10.8234 10.0818 11.1957 9.8535 11.634 9.6835C12.059 9.5185 12.5423 9.40683 13.2523 9.3735C13.9634 9.34183 14.1895 9.3335 16.0007 9.3335Z" fill="#6869AC"></path></svg>