<svg xmlns="http://www.w3.org/2000/svg" width="32" height="32" viewBox="0 0 32 32" fill="none"><rect x="0.5" y="0.5" width="31" height="31" rx="15.5" stroke="#576072" stroke-dasharray="2 2"></rect><path d="M12.6269 11.3334C12.6267 11.8763 12.2973 12.3648 11.7941 12.5686C11.291 12.7725 10.7145 12.6509 10.3365 12.2612C9.95854 11.8715 9.85455 11.2916 10.0736 10.7949C10.2926 10.2982 10.7909 9.98383 11.3336 10.0001C12.0543 10.0217 12.6272 10.6124 12.6269 11.3334ZM12.6669 13.6534H10.0002V22.0001H12.6669V13.6534ZM16.8803 13.6534H14.2269V22.0001H16.8536V17.6201C16.8536 15.1801 20.0336 14.9534 20.0336 17.6201V22.0001H22.6669V16.7134C22.6669 12.6001 17.9603 12.7534 16.8536 14.7734L16.8803 13.6534Z" fill="#6869AC"></path></svg>