<svg xmlns="http://www.w3.org/2000/svg" width="32" height="33" viewBox="0 0 32 33" fill="none"><rect x="0.5" y="0.949951" width="31" height="31" rx="15.5" stroke="#24262D" stroke-dasharray="2 2"></rect><path d="M16.7069 13.857L17.6497 14.7998C19.4722 16.6223 19.4722 19.5771 17.6497 21.3995L17.414 21.6352C15.5916 23.4577 12.6368 23.4577 10.8143 21.6352C8.9919 19.8127 8.9919 16.858 10.8143 15.0355L11.7572 15.9783C10.4554 17.2801 10.4554 19.3907 11.7572 20.6924C13.0589 21.9941 15.1695 21.9941 16.4712 20.6924L16.7069 20.4567C18.0087 19.1549 18.0087 17.0444 16.7069 15.7427L15.7641 14.7998L16.7069 13.857ZM21.1853 17.8639L20.2425 16.9211C21.5442 15.6194 21.5442 13.5088 20.2425 12.2071C18.9407 10.9054 16.8301 10.9054 15.5284 12.2071L15.2927 12.4428C13.9909 13.7446 13.9909 15.8551 15.2927 17.1569L16.2355 18.0997L15.2927 19.0425L14.3499 18.0997C12.5274 16.2772 12.5274 13.3224 14.3499 11.5L14.5856 11.2643C16.4081 9.44185 19.3628 9.44185 21.1853 11.2643C23.0077 13.0867 23.0077 16.0415 21.1853 17.8639Z" fill="#24262D"></path></svg>