<svg xmlns="http://www.w3.org/2000/svg" width="32" height="33" viewBox="0 0 32 33" fill="none"><rect x="0.5" y="0.950195" width="31" height="31" rx="15.5" stroke="#24262D" stroke-dasharray="2 2"></rect><path d="M14.6666 21.6157V19.3837C14.6666 18.5286 15.3298 17.8554 16.3111 17.4718C15.6953 17.2424 15.0289 17.117 14.3333 17.117C13.0733 17.117 11.9095 17.5282 10.9685 18.2237C11.5546 19.8866 12.9417 21.1717 14.6666 21.6157ZM20.5862 19.1743C20.3241 18.8188 19.4471 18.4504 18.3333 18.4504C16.9959 18.4504 15.9999 18.9815 15.9999 19.3837V21.7837C17.9503 21.7837 19.6561 20.7368 20.5862 19.1743ZM14.3666 16.117C15.195 16.117 15.8666 15.4454 15.8666 14.617C15.8666 13.7886 15.195 13.117 14.3666 13.117C13.5382 13.117 12.8666 13.7886 12.8666 14.617C12.8666 15.4454 13.5382 16.117 14.3666 16.117ZM18.3333 16.7837C19.0697 16.7837 19.6666 16.1868 19.6666 15.4504C19.6666 14.714 19.0697 14.117 18.3333 14.117C17.5969 14.117 16.9999 14.714 16.9999 15.4504C16.9999 16.1868 17.5969 16.7837 18.3333 16.7837ZM15.9999 23.117C12.318 23.117 9.33325 20.1322 9.33325 16.4504C9.33325 12.7685 12.318 9.78369 15.9999 9.78369C19.6818 9.78369 22.6666 12.7685 22.6666 16.4504C22.6666 20.1322 19.6818 23.117 15.9999 23.117Z" fill="#24262D"></path></svg>