<svg xmlns="http://www.w3.org/2000/svg" width="32" height="33" viewBox="0 0 32 33" fill="none"><rect x="0.5" y="1.2251" width="31" height="31" rx="15.5" stroke="#24262D" stroke-dasharray="2 2"></rect><path d="M19.3334 18.8888V23.4698C19.3334 23.6538 19.1841 23.8032 19.0001 23.8032C18.9397 23.8032 18.8804 23.7867 18.8286 23.7556L16.0001 22.0585L13.1716 23.7556C13.0137 23.8503 12.809 23.7991 12.7142 23.6413C12.6832 23.5894 12.6667 23.5302 12.6667 23.4698V18.8888C11.4475 17.9114 10.6667 16.4094 10.6667 14.7252C10.6667 11.7797 13.0546 9.39185 16.0001 9.39185C18.9456 9.39185 21.3334 11.7797 21.3334 14.7252C21.3334 16.4094 20.5527 17.9114 19.3334 18.8888ZM16.0001 18.7252C18.2092 18.7252 20.0001 16.9343 20.0001 14.7252C20.0001 12.516 18.2092 10.7252 16.0001 10.7252C13.7909 10.7252 12.0001 12.516 12.0001 14.7252C12.0001 16.9343 13.7909 18.7252 16.0001 18.7252ZM16.0001 17.3918C14.5273 17.3918 13.3334 16.1979 13.3334 14.7252C13.3334 13.2524 14.5273 12.0585 16.0001 12.0585C17.4728 12.0585 18.6667 13.2524 18.6667 14.7252C18.6667 16.1979 17.4728 17.3918 16.0001 17.3918Z" fill="#24262D"></path></svg>