<svg xmlns="http://www.w3.org/2000/svg" width="32" height="33" viewBox="0 0 32 33" fill="none"><rect x="0.5" y="0.950195" width="31" height="31" rx="15.5" stroke="#24262D" stroke-dasharray="2 2"></rect><path d="M15.9999 9.78369C19.6818 9.78369 22.6666 12.7685 22.6666 16.4504C22.6666 20.1322 19.6818 23.117 15.9999 23.117C12.318 23.117 9.33325 20.1322 9.33325 16.4504C9.33325 12.7685 12.318 9.78369 15.9999 9.78369ZM15.9999 11.117C13.0544 11.117 10.6666 13.5048 10.6666 16.4504C10.6666 19.3959 13.0544 21.7837 15.9999 21.7837C18.9455 21.7837 21.3333 19.3959 21.3333 16.4504C21.3333 13.5048 18.9455 11.117 15.9999 11.117ZM15.9999 15.7837C17.3333 15.7837 18.4444 16.0059 19.3333 16.4504C19.3333 18.2913 17.8409 19.7837 15.9999 19.7837C14.159 19.7837 12.6666 18.2913 12.6666 16.4504C13.5555 16.0059 14.6666 15.7837 15.9999 15.7837ZM13.6666 13.117C14.473 13.117 15.1457 13.6898 15.3 14.4507H12.0332C12.1875 13.6898 12.8601 13.117 13.6666 13.117ZM18.3333 13.117C19.1397 13.117 19.8124 13.6898 19.9667 14.4507H16.6999C16.8541 13.6898 17.5268 13.117 18.3333 13.117Z" fill="#24262D"></path></svg>