<svg xmlns="http://www.w3.org/2000/svg" width="32" height="33" viewBox="0 0 32 33" fill="none"><rect x="0.5" y="1.2251" width="31" height="31" rx="15.5" stroke="#24262D" stroke-dasharray="2 2"></rect><path d="M15.9999 10.0583C19.6818 10.0583 22.6666 13.0431 22.6666 16.725C22.6666 20.4069 19.6818 23.3917 15.9999 23.3917C12.318 23.3917 9.33325 20.4069 9.33325 16.725C9.33325 13.0431 12.318 10.0583 15.9999 10.0583ZM15.9999 11.3917C13.0544 11.3917 10.6666 13.7795 10.6666 16.725C10.6666 19.6706 13.0544 22.0583 15.9999 22.0583C18.9455 22.0583 21.3333 19.6706 21.3333 16.725C21.3333 13.7795 18.9455 11.3917 15.9999 11.3917ZM15.9999 16.0583C17.3333 16.0583 18.4444 16.2806 19.3333 16.725C19.3333 18.5659 17.8409 20.0583 15.9999 20.0583C14.159 20.0583 12.6666 18.5659 12.6666 16.725C13.5555 16.2806 14.6666 16.0583 15.9999 16.0583ZM13.6666 13.3917C14.473 13.3917 15.1457 13.9645 15.3 14.7254H12.0332C12.1875 13.9645 12.8601 13.3917 13.6666 13.3917ZM18.3333 13.3917C19.1397 13.3917 19.8124 13.9645 19.9667 14.7254H16.6999C16.8541 13.9645 17.5268 13.3917 18.3333 13.3917Z" fill="#24262D"></path></svg>