<svg xmlns="http://www.w3.org/2000/svg" width="32" height="33" viewBox="0 0 32 33" fill="none"><rect x="0.5" y="1.2251" width="31" height="31" rx="15.5" stroke="#24262D" stroke-dasharray="2 2"></rect><path d="M14.6666 21.8903V19.6583C14.6666 18.8033 15.3298 18.1301 16.3111 17.7464C15.6953 17.517 15.0289 17.3917 14.3333 17.3917C13.0733 17.3917 11.9095 17.8029 10.9685 18.4984C11.5546 20.1613 12.9417 21.4463 14.6666 21.8903ZM20.5862 19.4489C20.3241 19.0934 19.4471 18.725 18.3333 18.725C16.9959 18.725 15.9999 19.2561 15.9999 19.6583V22.0583C17.9503 22.0583 19.6561 21.0114 20.5862 19.4489ZM14.3666 16.3917C15.195 16.3917 15.8666 15.7201 15.8666 14.8917C15.8666 14.0633 15.195 13.3917 14.3666 13.3917C13.5382 13.3917 12.8666 14.0633 12.8666 14.8917C12.8666 15.7201 13.5382 16.3917 14.3666 16.3917ZM18.3333 17.0583C19.0697 17.0583 19.6666 16.4614 19.6666 15.725C19.6666 14.9886 19.0697 14.3917 18.3333 14.3917C17.5969 14.3917 16.9999 14.9886 16.9999 15.725C16.9999 16.4614 17.5969 17.0583 18.3333 17.0583ZM15.9999 23.3917C12.318 23.3917 9.33325 20.4069 9.33325 16.725C9.33325 13.0431 12.318 10.0583 15.9999 10.0583C19.6818 10.0583 22.6666 13.0431 22.6666 16.725C22.6666 20.4069 19.6818 23.3917 15.9999 23.3917Z" fill="#24262D"></path></svg>