<svg xmlns="http://www.w3.org/2000/svg" width="32" height="33" viewBox="0 0 32 33" fill="none"><rect x="0.5" y="0.949951" width="31" height="31" rx="15.5" stroke="#24262D" stroke-dasharray="2 2"></rect><path d="M16 9.1167L21.4779 10.334C21.783 10.4018 22 10.6723 22 10.9848V17.6426C22 18.98 21.3316 20.229 20.2188 20.9708L16 23.7834L11.7812 20.9708C10.6684 20.229 10 18.98 10 17.6426V10.9848C10 10.6723 10.217 10.4018 10.522 10.334L16 9.1167ZM16 10.4826L11.3333 11.5196V17.6426C11.3333 18.5342 11.7789 19.3668 12.5208 19.8614L16 22.1809L19.4792 19.8614C20.2211 19.3668 20.6667 18.5342 20.6667 17.6426V11.5196L16 10.4826ZM16 13.1167C16.7364 13.1167 17.3333 13.7137 17.3333 14.45C17.3333 14.9433 17.0655 15.3739 16.6674 15.6046L16.6667 18.45H15.3333L15.3333 15.605C14.9348 15.3744 14.6667 14.9435 14.6667 14.45C14.6667 13.7137 15.2636 13.1167 16 13.1167Z" fill="#24262D"></path></svg>