<svg xmlns="http://www.w3.org/2000/svg" width="32" height="32" viewBox="0 0 32 32" fill="none"><g clip-path="url(#clip0_17_80)"><path d="M24.4853 23.1517L16 31.6371L7.51467 23.1517C5.83646 21.4735 4.69358 19.3353 4.23057 17.0075C3.76756 14.6798 4.00521 12.267 4.91347 10.0743C5.82172 7.88156 7.35979 6.00743 9.33318 4.68886C11.3066 3.37029 13.6266 2.6665 16 2.6665C18.3734 2.6665 20.6934 3.37029 22.6668 4.68886C24.6402 6.00743 26.1783 7.88156 27.0865 10.0743C27.9948 12.267 28.2325 14.6798 27.7694 17.0075C27.3064 19.3353 26.1636 21.4735 24.4853 23.1517ZM16 17.3331C16.7072 17.3331 17.3855 17.0521 17.8856 16.552C18.3857 16.0519 18.6667 15.3736 18.6667 14.6664C18.6667 13.9592 18.3857 13.2809 17.8856 12.7808C17.3855 12.2807 16.7072 11.9997 16 11.9997C15.2928 11.9997 14.6145 12.2807 14.1144 12.7808C13.6143 13.2809 13.3333 13.9592 13.3333 14.6664C13.3333 15.3736 13.6143 16.0519 14.1144 16.552C14.6145 17.0521 15.2928 17.3331 16 17.3331Z" fill="#5F30E2"></path></g><defs><clipPath id="clip0_17_80"><rect width="32" height="32" fill="white"></rect></clipPath></defs></svg>