<svg xmlns="http://www.w3.org/2000/svg" class="b-hero__icon" width="60px" height="60px" viewBox="0 0 60 60"><g><path d="M55.766,30.345c-0.413-0.367-1.043-0.332-1.412,0.08L30.1,57.589L5.846,30.425    c-0.369-0.412-1-0.447-1.412-0.08c-0.412,0.368-0.448,1-0.08,1.412l25,28c0.19,0.213,0.461,0.334,0.746,0.334    c0.285,0,0.556-0.121,0.746-0.334l25-28C56.213,31.345,56.178,30.713,55.766,30.345z"></path><path d="M55.766,0.344c-0.413-0.367-1.043-0.332-1.412,0.08L30.1,27.589L5.846,0.424    c-0.369-0.412-1-0.447-1.412-0.08c-0.412,0.368-0.448,1-0.08,1.412l25,28c0.19,0.213,0.461,0.334,0.746,0.334    c0.285,0,0.556-0.121,0.746-0.334l25-28C56.213,1.344,56.178,0.712,55.766,0.344z"></path></g></svg>